<?xml version="1.0" standalone="no"?><!DOCTYPE svg PUBLIC "-//W3C//DTD SVG 1.1//EN" "http://www.w3.org/Graphics/SVG/1.1/DTD/svg11.dtd"><svg t="1555169124390" class="icon" style="" viewBox="0 0 1024 1024" version="1.1" xmlns="http://www.w3.org/2000/svg" p-id="3629" xmlns:xlink="http://www.w3.org/1999/xlink" width="200" height="200"><defs><style type="text/css"></style></defs><path d="M971.86816 729.87136h-593.92c-28.86144 0-52.13184-29.40928-52.13184-65.36192s23.2704-65.36192 52.13184-65.36192h593.92c28.85632 0 52.13184 29.40928 52.13184 65.36192s-23.27552 65.36192-52.13184 65.36192z m0-305.01888h-593.92c-28.86144 0-52.13184-29.4144-52.13184-65.36192s23.2704-65.36192 52.13184-65.36192h593.92c28.85632 0 52.13184 29.4144 52.13184 65.36192s-23.27552 65.36192-52.13184 65.36192z m-3.72224-294.12864H55.85408C25.13408 130.72384 0 101.30944 0 65.36192S25.13408 0 55.85408 0h912.29184c30.72 0 55.85408 29.4144 55.85408 65.36192s-25.13408 65.36192-55.85408 65.36192zM260.65408 729.87136L0 512l260.65408-217.87136v435.74272z m-204.8 163.4048h912.29184c30.72 0 55.85408 29.4144 55.85408 65.36704 0 35.94752-25.13408 65.36192-55.85408 65.36192H55.85408C25.13408 1024 0 994.5856 0 958.63808c0-35.94752 25.13408-65.36192 55.85408-65.36192z" fill="#707070" p-id="3630"></path></svg>