<?xml version="1.0" standalone="no"?><!DOCTYPE svg PUBLIC "-//W3C//DTD SVG 1.1//EN" "http://www.w3.org/Graphics/SVG/1.1/DTD/svg11.dtd"><svg t="1555169164009" class="icon" style="" viewBox="0 0 1024 1024" version="1.1" xmlns="http://www.w3.org/2000/svg" p-id="4002" xmlns:xlink="http://www.w3.org/1999/xlink" width="200" height="200"><defs><style type="text/css"></style></defs><path d="M57.79911111 334.50666667L638.52088889 334.50666667c28.21688889 0 50.97244445 24.576 50.97244444 54.61333333s-22.75555555 54.61333333-50.97244444 54.61333332l-580.72177778 0c-28.21688889 0-50.97244445-24.576-50.97244444-54.61333332S29.58222222 334.50666667 57.79911111 334.50666667zM57.79911111 589.36888889L638.52088889 589.36888889c28.21688889 0 50.97244445 24.576 50.97244444 54.61333333s-22.75555555 54.61333333-50.97244444 54.61333332l-580.72177778 0c-28.21688889 0-50.97244445-24.576-50.97244444-54.61333332S29.58222222 589.36888889 57.79911111 589.36888889zM61.44 835.12888889l892.01777778 1e-8c30.03733334 0 54.61333334 24.576 54.61333333 54.61333332 0 30.03733334-24.576 54.61333334-54.61333333 54.61333333l-892.01777778 0c-30.03733334 0-54.61333334-24.576-54.61333333-54.61333333C6.82666667 859.70488889 31.40266667 835.12888889 61.44 835.12888889zM753.20888889 334.50666667l254.86222222 182.04444444-254.86222222 182.04444444L753.20888889 334.50666667zM953.45777778 197.97333333l-892.01777779 0c-30.03733334 0-54.61333334-24.576-54.61333332-54.61333333s24.576-54.61333334 54.61333333-54.61333333l892.01777778 0c30.03733334 0 54.61333334 24.576 54.61333333 54.61333333S983.49511111 197.97333333 953.45777778 197.97333333z" p-id="4003" fill="#707070"></path></svg>